<?xml version="1.0" encoding="utf-8"?><svg viewBox="0 0 20 20" xmlns="http://www.w3.org/2000/svg" xmlns:xlink="http://www.w3.org/1999/xlink"><style>:root>svg{display:none}:root>svg:target{display:block}</style><svg viewBox="0 0 7 8" id="angle" xmlns="http://www.w3.org/2000/svg"><g clip-path="url(#aa)"><path d="M6.92 5.69a.273.273 0 01-.387 0l-2.84-2.834a.274.274 0 00-.387 0L.466 5.69a.273.273 0 01-.386-.387L2.92 2.47a.818.818 0 011.16 0l2.84 2.833a.273.273 0 010 .387z"/></g><defs><clipPath id="aa"><path transform="matrix(1 0 0 -1 0 7.5)" d="M0 0h7v7H0z"/></clipPath></defs></svg><svg viewBox="0 0 20 20" id="trash" xmlns="http://www.w3.org/2000/svg"><g clip-path="url(#ba)" fill-opacity=".3"><path d="M18.572 2.857h-5v-.714A2.144 2.144 0 0011.428 0H8.572C7.388 0 6.429.96 6.429 2.143v.714h-5a.714.714 0 100 1.429h.776L3.572 19.35c.033.369.343.65.714.649h11.428c.37.002.681-.28.715-.65l1.366-15.064h.776a.714.714 0 100-1.429zM7.857 2.143c0-.395.32-.714.715-.714h2.857c.394 0 .714.32.714.714v.714H7.857v-.714zm7.205 16.428H4.938L3.643 4.286H16.36L15.062 18.57z"/><path d="M7.857 16.381v-.003l-.714-10a.716.716 0 00-1.429.101l.715 10a.714.714 0 00.714.664h.051a.714.714 0 00.663-.762zM10 5.714a.714.714 0 00-.714.715v10a.714.714 0 101.428 0v-10A.714.714 0 0010 5.714zm3.622 0a.716.716 0 00-.765.664l-.714 10a.714.714 0 00.66.764h.053a.713.713 0 00.715-.663l.715-10a.716.716 0 00-.664-.765z"/></g><defs><clipPath id="ba"><path d="M0 0h20v20H0z"/></clipPath></defs></svg></svg>